# xmcd
#
# Track frame offsets:
# 150
# 14759
# 30476
# 46207
# 61997
# 76094
# 89722
# 104104
# 115974
# 131021
# 146416
# 160066
# 173914
#
# Disc length: 2524 seconds
#
#
# Revision: 0
# Processed by: cddbd v1.5.1PL0 Copyright (c) Steve Scherf et al.
# Submitted via: FreeRIP 2.941 
#
DISCID=af09da0d
DTITLE=Bessie Smith - Queen of Blues
DYEAR=2002
DGENRE=Blues
TTITLE0=The St. Louis Blues (1925)
TTITLE1=Careless Love (1925)
TTITLE2=Down Hearted Blues (1923)
TTITLE3=T'ain't Nobody's Bizness if I do (1923)
TTITLE4=Reckless Blues (1925)
TTITLE5=The Yellow Dog Blues (1925)
TTITLE6=I Ain't Got Nobody (1925)
TTITLE7=I Want Every Bit of It (1926)
TTITLE8=Jazzbo Brown From Memphis Town (1926)
TTITLE9=Send Me to the 'lectric Chair (1927)
TTITLE10=Alexander's Ragtime Band (1927)
TTITLE11=Empty Bed Blues (1928)
TTITLE12=Poor Man's Blues (1928)
EXTD=
EXTT0=
EXTT1=
EXTT2=
EXTT3=
EXTT4=
EXTT5=
EXTT6=
EXTT7=
EXTT8=
EXTT9=
EXTT10=
EXTT11=
EXTT12=
PLAYORDER=
